<svg width="20" height="20" viewBox="0 0 20 20" fill="none" xmlns="http://www.w3.org/2000/svg">
<path d="M2.5 10.8333L15.4883 10.8333L11.0775 15.2442C10.7521 15.5696 10.7521 16.0971 11.0775 16.4225C11.4029 16.7479 11.9306 16.7479 12.256 16.4225L18.0894 10.5892C18.4148 10.2638 18.4148 9.73604 18.0894 9.41084L12.256 3.5775C12.0933 3.41479 11.88 3.33334 11.6667 3.33334C11.4535 3.33334 11.2402 3.41479 11.0775 3.5775C10.7521 3.90292 10.7521 4.43063 11.0775 4.75584L15.4883 9.16667L2.5 9.16667C2.04 9.16667 1.66667 9.53979 1.66667 10C1.66667 10.4602 2.03979 10.8333 2.5 10.8333Z" fill="#D1AD84"/>
</svg>
