<svg width="20" height="20" viewBox="0 0 20 20" fill="none" xmlns="http://www.w3.org/2000/svg">
<g clip-path="url(#clip0_1_10)">
<path d="M9.99997 0C11.5337 0.000443887 13.0469 0.353692 14.4223 1.03242C15.7977 1.71115 16.9986 2.69717 17.932 3.91421C18.8654 5.13125 19.5064 6.54669 19.8053 8.05106C20.1042 9.55542 20.0531 11.1084 19.6559 12.5898C19.2587 14.0713 18.526 15.4415 17.5146 16.5945C16.5031 17.7475 15.24 18.6524 13.8229 19.2392C12.4058 19.826 10.8727 20.079 9.34224 19.9785C7.81176 19.8781 6.32489 19.427 4.99664 18.66L1.09664 19.9567C0.949944 20.0053 0.792606 20.0122 0.64221 19.9766C0.491814 19.941 0.354286 19.8643 0.244998 19.755C0.13571 19.6457 0.0589687 19.5082 0.0233508 19.3578C-0.0122671 19.2074 -0.00535799 19.05 0.043306 18.9033L1.34331 15.005C0.46453 13.4849 0.00146348 11.7603 0.000672402 10.0045C-0.000118679 8.24871 0.461393 6.52365 1.3388 5.0028C2.21621 3.48195 3.47858 2.21893 4.99897 1.34073C6.51936 0.462532 8.24418 0.000122674 9.99997 0ZM6.55331 5.005C6.42618 5.00939 6.30155 5.04149 6.18812 5.09907C6.0747 5.15664 5.97522 5.2383 5.89664 5.33833C5.67164 5.60167 5.03664 6.24333 5.03664 7.54667C5.03664 8.85167 5.91831 10.1133 6.04164 10.29C6.16331 10.4633 7.77664 13.14 10.245 14.29C10.7033 14.5033 11.17 14.69 11.645 14.8483C12.235 15.0483 12.7733 15.0217 13.1983 14.955C13.6716 14.88 14.6533 14.315 14.8583 13.6933C15.0616 13.0767 15.0616 12.545 15 12.435C14.94 12.3233 14.775 12.2567 14.5266 12.1217C13.9736 11.8216 13.4134 11.5348 12.8466 11.2617C12.6216 11.1717 12.4566 11.1283 12.2933 11.395C12.1283 11.66 11.66 12.2583 11.515 12.435C11.3733 12.6067 11.2283 12.6317 10.9816 12.5C10.735 12.3683 9.94331 12.0867 9.00331 11.1833C8.46088 10.6408 8.00048 10.0221 7.63664 9.34667C7.48997 9.08 7.61997 8.93833 7.74164 8.805C7.85331 8.68833 7.98831 8.49667 8.11164 8.34C8.23331 8.19 8.27664 8.07833 8.35831 7.9C8.43997 7.72333 8.39831 7.56667 8.33664 7.43667C8.27497 7.30333 7.78331 5.99667 7.57664 5.465C7.37664 4.94833 7.17497 5.02167 7.02331 5.01167C6.88164 5.005 6.71831 5.005 6.55331 5.005Z" fill="#D1AD84"/>
</g>
<defs>
<clipPath id="clip0_1_10">
<rect width="20" height="20" fill="white"/>
</clipPath>
</defs>
</svg>
