<svg width="43" height="40" viewBox="0 0 43 40" fill="none" xmlns="http://www.w3.org/2000/svg">
<path d="M35.1659 7.8625C30.5485 7.85651 26.0415 6.54906 22.239 4.1125C22.0154 3.97007 21.7507 3.89386 21.4798 3.89386C21.2088 3.89386 20.9441 3.97007 20.7205 4.1125C16.9294 6.54184 12.4376 7.84895 7.83398 7.8625C7.4776 7.8625 7.13581 7.99419 6.88381 8.22861C6.63181 8.46303 6.49023 8.78098 6.49023 9.1125C6.49023 20.0875 11.9459 30.3625 20.7205 35.8875C20.9428 36.0272 21.2048 36.1019 21.473 36.1019C21.7413 36.1019 22.0033 36.0272 22.2255 35.8875C31.0405 30.3875 36.5096 20.125 36.5096 9.1125C36.5096 8.78098 36.368 8.46303 36.116 8.22861C35.864 7.99419 35.5222 7.8625 35.1659 7.8625ZM21.4999 33.3375C14.2034 28.3375 9.5943 19.7125 9.21805 10.3375C13.5864 10.0995 17.8156 8.82111 21.4999 6.625C25.1881 8.83841 29.4275 10.13 33.8087 10.375C33.4324 19.7375 28.7965 28.3875 21.4999 33.3375Z" fill="#D1AD84"/>
</svg>
