<svg width="700" height="800" viewBox="0 0 700 800" fill="none" xmlns="http://www.w3.org/2000/svg">
<g filter="url(#filter0_d_3_5)">
<path d="M50 61C50 52.7157 56.7157 46 65 46H635C643.284 46 650 52.7157 650 61V687.852C650 695.272 644.574 701.577 637.237 702.684L352.237 745.663C350.754 745.886 349.246 745.886 347.763 745.663L62.7633 702.684C55.4258 701.577 50 695.272 50 687.852V61Z" fill="white"/>
</g>
<path d="M350.333 731.261C348.899 731.477 347.442 731.477 346.009 731.261L343.04 730.813L342.966 731.308L337.028 730.413L337.103 729.918L331.166 729.023L331.091 729.517L325.154 728.622L325.229 728.128L319.291 727.232L319.217 727.727L313.28 726.832L313.354 726.337L307.417 725.442L307.343 725.936L301.405 725.041L301.48 724.547L295.543 723.651L295.468 724.146L289.531 723.251L289.606 722.756L283.668 721.861L283.594 722.355L277.657 721.46L277.731 720.966L271.794 720.07L271.72 720.565L265.782 719.67L265.857 719.175L259.92 718.28L259.845 718.774L253.908 717.879L253.983 717.385L248.045 716.489L247.971 716.984L242.034 716.089L242.108 715.594L236.171 714.699L236.097 715.193L230.159 714.298L230.234 713.804L224.297 712.908L224.222 713.403L218.285 712.508L218.36 712.013L212.422 711.118L212.348 711.612L206.411 710.717L206.485 710.223L200.548 709.327L200.474 709.822L194.536 708.927L194.611 708.432L188.674 707.537L188.599 708.031L182.662 707.136L182.737 706.642L176.799 705.746L176.725 706.241L170.788 705.346L170.862 704.851L164.925 703.956L164.851 704.45L158.913 703.555L158.988 703.061L153.051 702.165L152.976 702.66L147.039 701.765L147.114 701.27L141.176 700.375L141.102 700.869L135.165 699.974L135.239 699.48L129.302 698.584L129.227 699.079L123.29 698.184L123.365 697.689L117.428 696.794L117.353 697.288L111.416 696.393L111.491 695.899L105.553 695.003L105.479 695.498L99.5416 694.603L99.6162 694.108L93.679 693.213L93.6045 693.707L87.6673 692.812L87.7418 692.318L81.8047 691.422L81.7301 691.917L75.793 691.022L75.8675 690.527L72.899 690.08C72.0357 689.949 71.2002 689.745 70.3983 689.473L70.2378 689.947C68.5254 689.367 66.9604 688.49 65.5985 687.382L65.9141 686.994C64.5792 685.907 63.4461 684.591 62.5708 683.109L62.1403 683.363C61.2474 681.851 60.6139 680.173 60.2955 678.393L60.7877 678.305C60.6386 677.471 60.561 676.615 60.561 675.742V672.738H60.061V666.729H60.561V660.721H60.061V654.713H60.561V648.704H60.061V642.696H60.561V636.688H60.061V630.679H60.561V624.671H60.061V618.662H60.561V612.654H60.061V606.646H60.561V600.637H60.061V594.629H60.561V588.621H60.061V582.612H60.561V576.604H60.061V570.596H60.561V564.587H60.061V558.579H60.561V552.571H60.061V546.562H60.561V540.554H60.061V534.546H60.561V528.537H60.061V522.529H60.561V516.521H60.061V510.512H60.561V504.504H60.061V498.496H60.561V492.487H60.061V486.479H60.561V480.47H60.061V474.462H60.561V468.454H60.061V462.445H60.561V456.437H60.061V450.429H60.561V444.42H60.061V438.412H60.561V432.404H60.061V426.395H60.561V420.387H60.061V414.379H60.561V408.37H60.061V402.362H60.561V396.354H60.061V390.345H60.561V384.337H60.061V378.329H60.561V372.32H60.061V366.312H60.561V360.304H60.061V354.295H60.561V348.287H60.061V342.279H60.561V336.27H60.061V330.262H60.561V324.254H60.061V318.245H60.561V312.237H60.061V306.229H60.561V300.22H60.061V294.212H60.561V288.204H60.061V282.195H60.561V276.187H60.061V270.179H60.561V264.17H60.061V258.162H60.561V252.154H60.061V246.145H60.561V240.137H60.061V234.129H60.561V228.12H60.061V222.112H60.561V216.104H60.061V210.095H60.561V204.087H60.061V198.079H60.561V192.07H60.061V186.062H60.561V180.054H60.061V174.045H60.561V168.037H60.061V162.029H60.561V156.02H60.061V150.012H60.561V144.004H60.061V137.995H60.561V131.987H60.061V125.979H60.561V119.97H60.061V113.962H60.561V107.954H60.061V101.945H60.561V95.9368H60.061V89.9284H60.561V83.9201H60.061V77.9117H60.561V74.9073C60.561 73.9383 60.6559 72.9919 60.837 72.0769L60.3465 71.9799C60.7358 70.0119 61.51 68.1824 62.5875 66.5731L63.003 66.8512C64.0617 65.2698 65.4234 63.9081 67.0049 62.8493L66.7267 62.4338C68.3361 61.3564 70.1656 60.5821 72.1335 60.1928L72.2306 60.6833C73.1456 60.5023 74.0919 60.4073 75.061 60.4073H78.0295V59.9073H83.9667V60.4073H89.9039V59.9073H95.841V60.4073H101.778V59.9073H107.715V60.4073H113.653V59.9073H119.59V60.4073H125.527V59.9073H131.464V60.4073H137.401V59.9073H143.338V60.4073H149.276V59.9073H155.213V60.4073H161.15V59.9073H167.087V60.4073H173.024V59.9073H178.961V60.4073H184.899V59.9073H190.836V60.4073H196.773V59.9073H202.71V60.4073H208.647V59.9073H214.584V60.4073H220.522V59.9073H226.459V60.4073H232.396V59.9073H238.333V60.4073H244.27V59.9073H250.207V60.4073H256.145V59.9073H262.082V60.4073H268.019V59.9073H273.956V60.4073H279.893V59.9073H285.83V60.4073H291.768V59.9073H297.705V60.4073H303.642V59.9073H309.579V60.4073H315.516V59.9073H321.453V60.4073H327.391V59.9073H333.328V60.4073H339.265V59.9073H345.202V60.4073H351.139V59.9073H357.076V60.4073H363.014V59.9073H368.951V60.4073H374.888V59.9073H380.825V60.4073H386.762V59.9073H392.699V60.4073H398.637V59.9073H404.574V60.4073H410.511V59.9073H416.448V60.4073H422.385V59.9073H428.322V60.4073H434.26V59.9073H440.197V60.4073H446.134V59.9073H452.071V60.4073H458.008V59.9073H463.945V60.4073H469.882V59.9073H475.82V60.4073H481.757V59.9073H487.694V60.4073H493.631V59.9073H499.568V60.4073H505.506V59.9073H511.443V60.4073H517.38V59.9073H523.317V60.4073H529.254V59.9073H535.191V60.4073H541.128V59.9073H547.066V60.4073H553.003V59.9073H558.94V60.4073H564.877V59.9073H570.814V60.4073H576.751V59.9073H582.689V60.4073H588.626V59.9073H594.563V60.4073H600.5V59.9073H606.437V60.4073H612.375V59.9073H618.312V60.4073H621.281C622.249 60.4073 623.196 60.5023 624.111 60.6833L624.208 60.1928C626.176 60.5821 628.005 61.3563 629.615 62.4338L629.337 62.8493C630.918 63.9081 632.28 65.2697 633.338 66.8512L633.754 66.5731C634.831 68.1824 635.606 70.0119 635.995 71.9799L635.505 72.0769C635.686 72.9919 635.781 73.9383 635.781 74.9073V77.9115H636.281V83.9198H635.781V89.9281H636.281V95.9365H635.781V101.945H636.281V107.953H635.781V113.962H636.281V119.97H635.781V125.978H636.281V131.987H635.781V137.995H636.281V144.003H635.781V150.012H636.281V156.02H635.781V162.028H636.281V168.037H635.781V174.045H636.281V180.053H635.781V186.062H636.281V192.07H635.781V198.078H636.281V204.087H635.781V210.095H636.281V216.103H635.781V222.112H636.281V228.12H635.781V234.128H636.281V240.137H635.781V246.145H636.281V252.153H635.781V258.162H636.281V264.17H635.781V270.179H636.281V276.187H635.781V282.195H636.281V288.204H635.781V294.212H636.281V300.22H635.781V306.229H636.281V312.237H635.781V318.245H636.281V324.254H635.781V330.262H636.281V336.27H635.781V342.279H636.281V348.287H635.781V354.295H636.281V360.304H635.781V366.312H636.281V372.32H635.781V378.329H636.281V384.337H635.781V390.345H636.281V396.354H635.781V402.362H636.281V408.37H635.781V414.379H636.281V420.387H635.781V426.395H636.281V432.404H635.781V438.412H636.281V444.42H635.781V450.429H636.281V456.437H635.781V462.445H636.281V468.454H635.781V474.462H636.281V480.47H635.781V486.479H636.281V492.487H635.781V498.495H636.281V504.504H635.781V510.512H636.281V516.52H635.781V522.529H636.281V528.537H635.781V534.545H636.281V540.554H635.781V546.562H636.281V552.57H635.781V558.579H636.281V564.587H635.781V570.595H636.281V576.604H635.781V582.612H636.281V588.62H635.781V594.629H636.281V600.637H635.781V606.645H636.281V612.654H635.781V618.662H636.281V624.67H635.781V630.679H636.281V636.687H635.781V642.695H636.281V648.704H635.781V654.712H636.281V660.721H635.781V666.729H636.281V672.737H635.781V675.742C635.781 676.615 635.703 677.471 635.554 678.305L636.046 678.393C635.728 680.173 635.094 681.851 634.201 683.363L633.771 683.109C632.895 684.591 631.762 685.907 630.427 686.994L630.743 687.382C629.381 688.49 627.816 689.367 626.104 689.947L625.943 689.473C625.141 689.745 624.306 689.949 623.442 690.08L620.474 690.527L620.548 691.022L614.611 691.917L614.537 691.422L608.6 692.318L608.674 692.812L602.737 693.707L602.662 693.213L596.725 694.108L596.8 694.603L590.863 695.498L590.788 695.003L584.851 695.899L584.925 696.393L578.988 697.288L578.914 696.794L572.977 697.689L573.051 698.184L567.114 699.079L567.039 698.584L561.102 699.48L561.177 699.974L555.24 700.869L555.165 700.375L549.228 701.27L549.302 701.765L543.365 702.66L543.291 702.165L537.354 703.061L537.428 703.555L531.491 704.45L531.416 703.956L525.479 704.851L525.554 705.346L519.617 706.241L519.542 705.746L513.605 706.642L513.679 707.136L507.742 708.031L507.668 707.537L501.73 708.432L501.805 708.927L495.868 709.822L495.793 709.327L489.856 710.223L489.931 710.717L483.994 711.612L483.919 711.118L477.982 712.013L478.056 712.508L472.119 713.403L472.045 712.908L466.107 713.804L466.182 714.298L460.245 715.193L460.17 714.699L454.233 715.594L454.308 716.089L448.37 716.984L448.296 716.489L442.359 717.385L442.433 717.879L436.496 718.774L436.422 718.28L430.484 719.175L430.559 719.67L424.622 720.565L424.547 720.07L418.61 720.966L418.685 721.46L412.747 722.355L412.673 721.861L406.736 722.756L406.81 723.251L400.873 724.146L400.799 723.651L394.861 724.547L394.936 725.041L388.999 725.936L388.924 725.442L382.987 726.337L383.062 726.832L377.124 727.727L377.05 727.232L371.113 728.128L371.187 728.622L365.25 729.517L365.176 729.023L359.238 729.918L359.313 730.413L353.376 731.308L353.301 730.813L350.333 731.261Z" fill="white" stroke="#C49157" stroke-dasharray="6 6"/>
<defs>
<filter id="filter0_d_3_5" x="0" y="0" width="700" height="799.83" filterUnits="userSpaceOnUse" color-interpolation-filters="sRGB">
<feFlood flood-opacity="0" result="BackgroundImageFix"/>
<feColorMatrix in="SourceAlpha" type="matrix" values="0 0 0 0 0 0 0 0 0 0 0 0 0 0 0 0 0 0 127 0" result="hardAlpha"/>
<feOffset dy="4"/>
<feGaussianBlur stdDeviation="25"/>
<feComposite in2="hardAlpha" operator="out"/>
<feColorMatrix type="matrix" values="0 0 0 0 0.483333 0 0 0 0 0.390119 0 0 0 0 0.283958 0 0 0 0.19 0"/>
<feBlend mode="normal" in2="BackgroundImageFix" result="effect1_dropShadow_3_5"/>
<feBlend mode="normal" in="SourceGraphic" in2="effect1_dropShadow_3_5" result="shape"/>
</filter>
</defs>
</svg>
